# xmcd
#
# Track frame offsets:
#	150
#	14302
#	28195
#	44317
#	56470
#	78748
#	92035
#	104413
#	123216
#	135753
#
# Disc length: 1984 seconds
#
# Revision: 1
# Processed by: cddbd v1.5.2PL0 Copyright (c) Steve Scherf et al.
# Submitted via: audiograbber 1.83.01
#
DISCID=7707be0a
DTITLE=Dolly Parton - Pure and Simple [CD2] The Hits
DYEAR=2016
DGENRE=Country
TTITLE0=My Tennessee Mountain Home
TTITLE1=Coat Of Many Colors
TTITLE2=How Great Thou Art
TTITLE3=Jolene
TTITLE4=Light Of A Clear Blue Morning
TTITLE5=Here You Come Again
TTITLE6=Help!
TTITLE7=Islands In The Stream
TTITLE8=9 To 5
TTITLE9=I Will Always Love You
EXTD=
EXTT0=
EXTT1=
EXTT2=
EXTT3=
EXTT4=
EXTT5=
EXTT6=
EXTT7=
EXTT8=
EXTT9=
PLAYORDER=
